<mxfile host="app.diagrams.net" agent="Mozilla/5.0 (X11; Linux x86_64) AppleWebKit/537.36 (KHTML, like Gecko) Chrome/125.0.0.0 Safari/537.36" version="26.0.12">
  <diagram id="R2lEEEUBdFMjLlhIrx00" name="Page-1">
    <mxGraphModel dx="858" dy="514" grid="1" gridSize="10" guides="1" tooltips="1" connect="1" arrows="1" fold="1" page="1" pageScale="1" pageWidth="850" pageHeight="1100" math="0" shadow="0" extFonts="Permanent Marker^https://fonts.googleapis.com/css?family=Permanent+Marker">
      <root>
        <mxCell id="0" />
        <mxCell id="1" parent="0" />
        <mxCell id="D-Rfe0FwFjcuC13UmGJ1-12" value="" style="rhombus;whiteSpace=wrap;html=1;" vertex="1" parent="1">
          <mxGeometry x="360" y="220" width="100" height="100" as="geometry" />
        </mxCell>
        <mxCell id="D-Rfe0FwFjcuC13UmGJ1-11" value="" style="rounded=0;whiteSpace=wrap;html=1;" vertex="1" parent="1">
          <mxGeometry x="565" y="235" width="130" height="70" as="geometry" />
        </mxCell>
        <mxCell id="D-Rfe0FwFjcuC13UmGJ1-1" value="Supporters" style="rounded=0;whiteSpace=wrap;html=1;" vertex="1" parent="1">
          <mxGeometry x="130" y="240" width="120" height="60" as="geometry" />
        </mxCell>
        <mxCell id="D-Rfe0FwFjcuC13UmGJ1-2" value="Donations" style="rounded=0;whiteSpace=wrap;html=1;perimeterSpacing=5;fillStyle=auto;container=0;" vertex="1" parent="1">
          <mxGeometry x="570" y="240" width="120" height="60" as="geometry" />
        </mxCell>
        <mxCell id="D-Rfe0FwFjcuC13UmGJ1-3" value="Activities" style="rounded=0;whiteSpace=wrap;html=1;" vertex="1" parent="1">
          <mxGeometry x="570" y="480" width="120" height="60" as="geometry" />
        </mxCell>
        <mxCell id="D-Rfe0FwFjcuC13UmGJ1-4" value="Volunteers" style="rounded=0;whiteSpace=wrap;html=1;" vertex="1" parent="1">
          <mxGeometry x="130" y="480" width="120" height="60" as="geometry" />
        </mxCell>
        <mxCell id="D-Rfe0FwFjcuC13UmGJ1-5" value="Donate" style="rhombus;whiteSpace=wrap;html=1;" vertex="1" parent="1">
          <mxGeometry x="370" y="230" width="80" height="80" as="geometry" />
        </mxCell>
        <mxCell id="D-Rfe0FwFjcuC13UmGJ1-6" value="Fund" style="rhombus;whiteSpace=wrap;html=1;" vertex="1" parent="1">
          <mxGeometry x="590" y="350" width="80" height="80" as="geometry" />
        </mxCell>
        <mxCell id="D-Rfe0FwFjcuC13UmGJ1-7" value="Work" style="rhombus;whiteSpace=wrap;html=1;" vertex="1" parent="1">
          <mxGeometry x="370" y="470" width="80" height="80" as="geometry" />
        </mxCell>
        <mxCell id="D-Rfe0FwFjcuC13UmGJ1-13" value="" style="endArrow=none;html=1;rounded=0;entryX=0;entryY=0.5;entryDx=0;entryDy=0;" edge="1" parent="1" target="D-Rfe0FwFjcuC13UmGJ1-12">
          <mxGeometry width="50" height="50" relative="1" as="geometry">
            <mxPoint x="250" y="270" as="sourcePoint" />
            <mxPoint x="400" y="310" as="targetPoint" />
            <Array as="points" />
          </mxGeometry>
        </mxCell>
        <mxCell id="D-Rfe0FwFjcuC13UmGJ1-14" value="" style="endArrow=none;html=1;rounded=0;entryX=0;entryY=0.5;entryDx=0;entryDy=0;" edge="1" parent="1" target="D-Rfe0FwFjcuC13UmGJ1-2">
          <mxGeometry width="50" height="50" relative="1" as="geometry">
            <mxPoint x="460" y="269.5" as="sourcePoint" />
            <mxPoint x="560" y="270" as="targetPoint" />
            <Array as="points" />
          </mxGeometry>
        </mxCell>
        <mxCell id="D-Rfe0FwFjcuC13UmGJ1-18" value="" style="endArrow=none;html=1;rounded=0;exitX=0.5;exitY=0;exitDx=0;exitDy=0;" edge="1" parent="1" target="D-Rfe0FwFjcuC13UmGJ1-7">
          <mxGeometry width="50" height="50" relative="1" as="geometry">
            <mxPoint x="250" y="510" as="sourcePoint" />
            <mxPoint x="250" y="460" as="targetPoint" />
          </mxGeometry>
        </mxCell>
        <mxCell id="D-Rfe0FwFjcuC13UmGJ1-19" value="" style="endArrow=none;html=1;rounded=0;exitX=0.5;exitY=0;exitDx=0;exitDy=0;" edge="1" parent="1">
          <mxGeometry width="50" height="50" relative="1" as="geometry">
            <mxPoint x="450" y="509.71" as="sourcePoint" />
            <mxPoint x="570" y="509.71" as="targetPoint" />
          </mxGeometry>
        </mxCell>
        <mxCell id="D-Rfe0FwFjcuC13UmGJ1-20" value="" style="endArrow=none;html=1;rounded=0;exitX=0.5;exitY=0;exitDx=0;exitDy=0;" edge="1" parent="1" target="D-Rfe0FwFjcuC13UmGJ1-3">
          <mxGeometry width="50" height="50" relative="1" as="geometry">
            <mxPoint x="630" y="430.00000000000006" as="sourcePoint" />
            <mxPoint x="750" y="430.00000000000006" as="targetPoint" />
          </mxGeometry>
        </mxCell>
        <mxCell id="D-Rfe0FwFjcuC13UmGJ1-21" value="" style="endArrow=none;html=1;rounded=0;" edge="1" parent="1" target="D-Rfe0FwFjcuC13UmGJ1-6">
          <mxGeometry width="50" height="50" relative="1" as="geometry">
            <mxPoint x="630" y="305" as="sourcePoint" />
            <mxPoint x="629.71" y="345" as="targetPoint" />
          </mxGeometry>
        </mxCell>
        <mxCell id="D-Rfe0FwFjcuC13UmGJ1-22" value="name" style="ellipse;whiteSpace=wrap;html=1;fontStyle=4" vertex="1" parent="1">
          <mxGeometry x="120" y="170" width="50" height="30" as="geometry" />
        </mxCell>
        <mxCell id="D-Rfe0FwFjcuC13UmGJ1-23" value="phone" style="ellipse;whiteSpace=wrap;html=1;fontStyle=0" vertex="1" parent="1">
          <mxGeometry x="200" y="170" width="50" height="30" as="geometry" />
        </mxCell>
        <mxCell id="D-Rfe0FwFjcuC13UmGJ1-24" value="amount" style="ellipse;whiteSpace=wrap;html=1;fontStyle=4" vertex="1" parent="1">
          <mxGeometry x="590" y="160" width="50" height="30" as="geometry" />
        </mxCell>
        <mxCell id="D-Rfe0FwFjcuC13UmGJ1-25" value="date" style="ellipse;whiteSpace=wrap;html=1;fontStyle=4" vertex="1" parent="1">
          <mxGeometry x="650" y="160" width="50" height="30" as="geometry" />
        </mxCell>
        <mxCell id="D-Rfe0FwFjcuC13UmGJ1-26" value="location" style="ellipse;whiteSpace=wrap;html=1;fontStyle=4" vertex="1" parent="1">
          <mxGeometry x="485" y="570" width="50" height="30" as="geometry" />
        </mxCell>
        <mxCell id="D-Rfe0FwFjcuC13UmGJ1-27" value="type" style="ellipse;whiteSpace=wrap;html=1;" vertex="1" parent="1">
          <mxGeometry x="550" y="590" width="50" height="30" as="geometry" />
        </mxCell>
        <mxCell id="D-Rfe0FwFjcuC13UmGJ1-28" value="end-date" style="ellipse;whiteSpace=wrap;html=1;fontStyle=4" vertex="1" parent="1">
          <mxGeometry x="670" y="580" width="60" height="40" as="geometry" />
        </mxCell>
        <mxCell id="D-Rfe0FwFjcuC13UmGJ1-29" value="price" style="ellipse;whiteSpace=wrap;html=1;" vertex="1" parent="1">
          <mxGeometry x="710" y="535" width="50" height="30" as="geometry" />
        </mxCell>
        <mxCell id="D-Rfe0FwFjcuC13UmGJ1-30" value="name" style="ellipse;whiteSpace=wrap;html=1;fontStyle=4" vertex="1" parent="1">
          <mxGeometry x="110" y="570" width="50" height="30" as="geometry" />
        </mxCell>
        <mxCell id="D-Rfe0FwFjcuC13UmGJ1-31" value="phone" style="ellipse;whiteSpace=wrap;html=1;fontStyle=0" vertex="1" parent="1">
          <mxGeometry x="190" y="560" width="50" height="30" as="geometry" />
        </mxCell>
        <mxCell id="D-Rfe0FwFjcuC13UmGJ1-35" value="" style="endArrow=none;html=1;rounded=0;exitX=0.346;exitY=-0.026;exitDx=0;exitDy=0;exitPerimeter=0;" edge="1" parent="1" source="D-Rfe0FwFjcuC13UmGJ1-1">
          <mxGeometry width="50" height="50" relative="1" as="geometry">
            <mxPoint x="100" y="250" as="sourcePoint" />
            <mxPoint x="150" y="200" as="targetPoint" />
          </mxGeometry>
        </mxCell>
        <mxCell id="D-Rfe0FwFjcuC13UmGJ1-36" value="" style="endArrow=none;html=1;rounded=0;exitX=0.583;exitY=0;exitDx=0;exitDy=0;exitPerimeter=0;" edge="1" parent="1" source="D-Rfe0FwFjcuC13UmGJ1-1">
          <mxGeometry width="50" height="50" relative="1" as="geometry">
            <mxPoint x="250" y="242" as="sourcePoint" />
            <mxPoint x="229" y="200" as="targetPoint" />
          </mxGeometry>
        </mxCell>
        <mxCell id="D-Rfe0FwFjcuC13UmGJ1-37" value="" style="endArrow=none;html=1;rounded=0;exitX=0.415;exitY=0.024;exitDx=0;exitDy=0;exitPerimeter=0;" edge="1" parent="1" source="D-Rfe0FwFjcuC13UmGJ1-11">
          <mxGeometry width="50" height="50" relative="1" as="geometry">
            <mxPoint x="610" y="232" as="sourcePoint" />
            <mxPoint x="616" y="190" as="targetPoint" />
          </mxGeometry>
        </mxCell>
        <mxCell id="D-Rfe0FwFjcuC13UmGJ1-38" value="" style="endArrow=none;html=1;rounded=0;exitX=0.591;exitY=0.016;exitDx=0;exitDy=0;exitPerimeter=0;" edge="1" parent="1" source="D-Rfe0FwFjcuC13UmGJ1-11">
          <mxGeometry width="50" height="50" relative="1" as="geometry">
            <mxPoint x="670" y="230" as="sourcePoint" />
            <mxPoint x="680" y="190" as="targetPoint" />
          </mxGeometry>
        </mxCell>
        <mxCell id="D-Rfe0FwFjcuC13UmGJ1-39" value="" style="endArrow=none;html=1;rounded=0;exitX=0.67;exitY=0.105;exitDx=0;exitDy=0;exitPerimeter=0;" edge="1" parent="1" source="D-Rfe0FwFjcuC13UmGJ1-26">
          <mxGeometry width="50" height="50" relative="1" as="geometry">
            <mxPoint x="530.0010026161157" y="575.3366976026082" as="sourcePoint" />
            <mxPoint x="599.88" y="540" as="targetPoint" />
          </mxGeometry>
        </mxCell>
        <mxCell id="D-Rfe0FwFjcuC13UmGJ1-40" value="" style="endArrow=none;html=1;rounded=0;exitX=0.613;exitY=-0.006;exitDx=0;exitDy=0;exitPerimeter=0;" edge="1" parent="1" source="D-Rfe0FwFjcuC13UmGJ1-27">
          <mxGeometry width="50" height="50" relative="1" as="geometry">
            <mxPoint x="589.9982501152604" y="581.5324599653729" as="sourcePoint" />
            <mxPoint x="623.99" y="540" as="targetPoint" />
          </mxGeometry>
        </mxCell>
        <mxCell id="D-Rfe0FwFjcuC13UmGJ1-41" value="" style="endArrow=none;html=1;rounded=0;exitX=0.329;exitY=0.031;exitDx=0;exitDy=0;exitPerimeter=0;" edge="1" parent="1" source="D-Rfe0FwFjcuC13UmGJ1-28">
          <mxGeometry width="50" height="50" relative="1" as="geometry">
            <mxPoint x="684.8299999999999" y="577.2900000000002" as="sourcePoint" />
            <mxPoint x="665.16" y="540" as="targetPoint" />
          </mxGeometry>
        </mxCell>
        <mxCell id="D-Rfe0FwFjcuC13UmGJ1-42" value="" style="endArrow=none;html=1;rounded=0;exitX=0.077;exitY=0.243;exitDx=0;exitDy=0;exitPerimeter=0;" edge="1" parent="1">
          <mxGeometry width="50" height="50" relative="1" as="geometry">
            <mxPoint x="709.82" y="550" as="sourcePoint" />
            <mxPoint x="690" y="513" as="targetPoint" />
          </mxGeometry>
        </mxCell>
        <mxCell id="D-Rfe0FwFjcuC13UmGJ1-43" value="" style="endArrow=none;html=1;rounded=0;entryX=0.299;entryY=1.021;entryDx=0;entryDy=0;entryPerimeter=0;" edge="1" parent="1" target="D-Rfe0FwFjcuC13UmGJ1-4">
          <mxGeometry width="50" height="50" relative="1" as="geometry">
            <mxPoint x="150" y="574" as="sourcePoint" />
            <mxPoint x="202" y="540" as="targetPoint" />
          </mxGeometry>
        </mxCell>
        <mxCell id="D-Rfe0FwFjcuC13UmGJ1-44" value="" style="endArrow=none;html=1;rounded=0;entryX=0.299;entryY=1.021;entryDx=0;entryDy=0;entryPerimeter=0;exitX=0;exitY=0;exitDx=0;exitDy=0;" edge="1" parent="1" source="D-Rfe0FwFjcuC13UmGJ1-31">
          <mxGeometry width="50" height="50" relative="1" as="geometry">
            <mxPoint x="174" y="573" as="sourcePoint" />
            <mxPoint x="190" y="540" as="targetPoint" />
          </mxGeometry>
        </mxCell>
        <UserObject label="&lt;b&gt;(1, N)&lt;/b&gt;" placeholders="1" name="Variable" id="D-Rfe0FwFjcuC13UmGJ1-46">
          <mxCell style="text;html=1;strokeColor=none;fillColor=none;align=center;verticalAlign=middle;whiteSpace=wrap;overflow=hidden;fontSize=9;" vertex="1" parent="1">
            <mxGeometry x="260" y="250" width="80" height="20" as="geometry" />
          </mxCell>
        </UserObject>
        <UserObject label="&lt;b&gt;(1, 1)&lt;/b&gt;" placeholders="1" name="Variable" id="D-Rfe0FwFjcuC13UmGJ1-47">
          <mxCell style="text;html=1;strokeColor=none;fillColor=none;align=center;verticalAlign=middle;whiteSpace=wrap;overflow=hidden;fontSize=9;" vertex="1" parent="1">
            <mxGeometry x="470" y="250" width="80" height="20" as="geometry" />
          </mxCell>
        </UserObject>
        <UserObject label="&lt;b&gt;(0, N)&lt;/b&gt;" placeholders="1" name="Variable" id="D-Rfe0FwFjcuC13UmGJ1-48">
          <mxCell style="text;html=1;strokeColor=none;fillColor=none;align=center;verticalAlign=middle;whiteSpace=wrap;overflow=hidden;fontSize=9;" vertex="1" parent="1">
            <mxGeometry x="610" y="320" width="80" height="20" as="geometry" />
          </mxCell>
        </UserObject>
        <UserObject label="&lt;b&gt;(1, N)&lt;/b&gt;" placeholders="1" name="Variable" id="D-Rfe0FwFjcuC13UmGJ1-49">
          <mxCell style="text;html=1;strokeColor=none;fillColor=none;align=center;verticalAlign=middle;whiteSpace=wrap;overflow=hidden;fontSize=9;" vertex="1" parent="1">
            <mxGeometry x="610" y="450" width="80" height="20" as="geometry" />
          </mxCell>
        </UserObject>
        <UserObject label="&lt;b&gt;(0, N)&lt;/b&gt;" placeholders="1" name="Variable" id="D-Rfe0FwFjcuC13UmGJ1-50">
          <mxCell style="text;html=1;strokeColor=none;fillColor=none;align=center;verticalAlign=middle;whiteSpace=wrap;overflow=hidden;fontSize=9;" vertex="1" parent="1">
            <mxGeometry x="270" y="490" width="80" height="20" as="geometry" />
          </mxCell>
        </UserObject>
        <UserObject label="&lt;b&gt;(2, N)&lt;/b&gt;" placeholders="1" name="Variable" id="D-Rfe0FwFjcuC13UmGJ1-51">
          <mxCell style="text;html=1;strokeColor=none;fillColor=none;align=center;verticalAlign=middle;whiteSpace=wrap;overflow=hidden;fontSize=9;" vertex="1" parent="1">
            <mxGeometry x="470" y="490" width="80" height="20" as="geometry" />
          </mxCell>
        </UserObject>
        <mxCell id="D-Rfe0FwFjcuC13UmGJ1-52" value="address" style="ellipse;whiteSpace=wrap;html=1;fontStyle=4" vertex="1" parent="1">
          <mxGeometry x="60" y="190" width="50" height="30" as="geometry" />
        </mxCell>
        <mxCell id="D-Rfe0FwFjcuC13UmGJ1-53" value="email" style="ellipse;whiteSpace=wrap;html=1;" vertex="1" parent="1">
          <mxGeometry x="50" y="245" width="50" height="30" as="geometry" />
        </mxCell>
        <mxCell id="D-Rfe0FwFjcuC13UmGJ1-54" value="" style="endArrow=none;html=1;rounded=0;exitX=0;exitY=0.25;exitDx=0;exitDy=0;" edge="1" parent="1" source="D-Rfe0FwFjcuC13UmGJ1-1">
          <mxGeometry width="50" height="50" relative="1" as="geometry">
            <mxPoint x="110" y="258" as="sourcePoint" />
            <mxPoint x="88" y="220" as="targetPoint" />
          </mxGeometry>
        </mxCell>
        <mxCell id="D-Rfe0FwFjcuC13UmGJ1-55" value="" style="endArrow=none;html=1;rounded=0;exitX=0.001;exitY=0.688;exitDx=0;exitDy=0;exitPerimeter=0;" edge="1" parent="1" source="D-Rfe0FwFjcuC13UmGJ1-1">
          <mxGeometry width="50" height="50" relative="1" as="geometry">
            <mxPoint x="120" y="305" as="sourcePoint" />
            <mxPoint x="98" y="267" as="targetPoint" />
          </mxGeometry>
        </mxCell>
        <mxCell id="D-Rfe0FwFjcuC13UmGJ1-56" value="address" style="ellipse;whiteSpace=wrap;html=1;fontStyle=4" vertex="1" parent="1">
          <mxGeometry x="55" y="485" width="50" height="30" as="geometry" />
        </mxCell>
        <mxCell id="D-Rfe0FwFjcuC13UmGJ1-57" value="email" style="ellipse;whiteSpace=wrap;html=1;" vertex="1" parent="1">
          <mxGeometry x="45" y="540" width="50" height="30" as="geometry" />
        </mxCell>
        <mxCell id="D-Rfe0FwFjcuC13UmGJ1-58" value="" style="endArrow=none;html=1;rounded=0;entryX=0;entryY=0.75;entryDx=0;entryDy=0;" edge="1" parent="1" target="D-Rfe0FwFjcuC13UmGJ1-4">
          <mxGeometry width="50" height="50" relative="1" as="geometry">
            <mxPoint x="94" y="550" as="sourcePoint" />
            <mxPoint x="110" y="517" as="targetPoint" />
          </mxGeometry>
        </mxCell>
        <mxCell id="D-Rfe0FwFjcuC13UmGJ1-59" value="" style="endArrow=none;html=1;rounded=0;entryX=0.029;entryY=0.552;entryDx=0;entryDy=0;entryPerimeter=0;exitX=1;exitY=0.5;exitDx=0;exitDy=0;" edge="1" parent="1" source="D-Rfe0FwFjcuC13UmGJ1-56" target="D-Rfe0FwFjcuC13UmGJ1-4">
          <mxGeometry width="50" height="50" relative="1" as="geometry">
            <mxPoint x="105" y="495" as="sourcePoint" />
            <mxPoint x="141" y="470" as="targetPoint" />
          </mxGeometry>
        </mxCell>
        <mxCell id="D-Rfe0FwFjcuC13UmGJ1-61" value="start_date" style="ellipse;whiteSpace=wrap;html=1;fontStyle=4" vertex="1" parent="1">
          <mxGeometry x="610" y="590" width="60" height="40" as="geometry" />
        </mxCell>
        <mxCell id="D-Rfe0FwFjcuC13UmGJ1-64" value="" style="endArrow=none;html=1;rounded=0;exitX=0.575;exitY=0.055;exitDx=0;exitDy=0;exitPerimeter=0;" edge="1" parent="1" source="D-Rfe0FwFjcuC13UmGJ1-61">
          <mxGeometry width="50" height="50" relative="1" as="geometry">
            <mxPoint x="649.9999999999999" y="577.2900000000002" as="sourcePoint" />
            <mxPoint x="630.3299999999999" y="540" as="targetPoint" />
          </mxGeometry>
        </mxCell>
      </root>
    </mxGraphModel>
  </diagram>
</mxfile>
